<svg viewBox="-87.8864 -231.8918 1464.7727 1464.7727" fill="none" xmlns="http://www.w3.org/2000/svg">
<path d="M644.406 97.6981C479.453 13.6043 204.531 -12.2707 55.75 13.6043C23.4062 20.0731 4 45.9481 4 78.2918V731.636C4 763.979 23.4062 783.386 55.75 776.917C204.531 751.042 479.453 776.917 644.406 854.542V97.6981Z" fill="#8165C9" stroke="#141024" stroke-width="8" stroke-linecap="round" stroke-linejoin="round"/>
<path d="M644.406 97.6981C809.359 13.6043 1084.28 -12.2707 1233.06 13.6043C1265.41 20.0731 1284.81 45.9481 1284.81 78.2918V731.636C1284.81 763.979 1265.41 783.386 1233.06 776.917C1084.28 751.042 809.359 776.917 644.406 854.542V97.6981Z" fill="#8165C9" stroke="#141024" stroke-width="8" stroke-linecap="round" stroke-linejoin="round"/>
<path d="M644.406 142.98C495.625 71.8237 243.344 45.9487 107.5 65.3549C81.625 68.5893 68.6875 84.7612 68.6875 107.402V679.886C68.6875 702.527 81.625 715.464 107.5 712.23C243.344 692.824 495.625 718.699 644.406 783.386V142.98Z" fill="#EAE4F4" stroke="#141024" stroke-width="8" stroke-linecap="round" stroke-linejoin="round"/>
<path d="M644.406 142.98C793.188 71.8237 1045.47 45.9487 1181.31 65.3549C1207.19 68.5893 1220.12 84.7612 1220.12 107.402V679.886C1220.12 702.527 1207.19 715.464 1181.31 712.23C1045.47 692.824 793.188 718.699 644.406 783.386V142.98Z" fill="#EAE4F4" stroke="#141024" stroke-width="8" stroke-linecap="round" stroke-linejoin="round"/>
<path d="M644.406 142.977V783.383" stroke="#141024" stroke-width="6" stroke-linecap="round" stroke-linejoin="round"/>
<path d="M364.906 275.445L223.406 337.32L364.906 399.195L506.406 337.32L364.906 275.445Z" fill="#CEA4A4" stroke="#141024" stroke-width="6" stroke-linecap="round" stroke-linejoin="round"/>
<path d="M223.406 337.32L364.906 399.195V539.445L223.406 477.57V337.32Z" fill="#A86060" stroke="#141024" stroke-width="6" stroke-linecap="round" stroke-linejoin="round"/>
<path d="M506.406 337.32L364.906 399.195V539.445L506.406 477.57V337.32Z" fill="#BD8484" stroke="#141024" stroke-width="6" stroke-linecap="round" stroke-linejoin="round"/>
<path d="M296.777 306.383L438.277 368.258L422.555 376.508L281.055 314.633L296.777 306.383Z" fill="#D6CFE5" stroke="#141024" stroke-width="6" stroke-linecap="round" stroke-linejoin="round"/>
<path d="M364.906 399.195V539.445" stroke="black" stroke-width="6" stroke-linecap="round" stroke-linejoin="round"/>
<path d="M814.88 273.445H779.548C771.186 273.445 764.406 280.225 764.406 288.587V323.919C764.406 332.282 771.186 339.061 779.548 339.061H814.88C823.243 339.061 830.022 332.282 830.022 323.919V288.587C830.022 280.225 823.243 273.445 814.88 273.445Z" fill="#C4122E" stroke="#141024" stroke-width="6" stroke-linecap="round" stroke-linejoin="round"/>
<path d="M1112.72 287.938H892.966C880.472 287.938 870.344 293.534 870.344 300.438C870.344 307.341 880.472 312.938 892.966 312.938H1112.72C1125.22 312.938 1135.34 307.341 1135.34 300.438C1135.34 293.534 1125.22 287.938 1112.72 287.938Z" fill="black" stroke="#141024" stroke-width="3" stroke-linecap="round" stroke-linejoin="round"/>
<path d="M814.88 384.492H779.548C771.186 384.492 764.406 391.272 764.406 399.634V434.966C764.406 443.329 771.186 450.108 779.548 450.108H814.88C823.243 450.108 830.022 443.329 830.022 434.966V399.634C830.022 391.272 823.243 384.492 814.88 384.492Z" fill="#FBBC05" stroke="#141024" stroke-width="6" stroke-linecap="round" stroke-linejoin="round"/>
<path d="M1112.72 403.938H892.966C880.472 403.938 870.344 409.534 870.344 416.438C870.344 423.341 880.472 428.938 892.966 428.938H1112.72C1125.22 428.938 1135.34 423.341 1135.34 416.438C1135.34 409.534 1125.22 403.938 1112.72 403.938Z" fill="black" stroke="#141024" stroke-width="3" stroke-linecap="round" stroke-linejoin="round"/>
<path d="M814.88 495.531H779.548C771.186 495.531 764.406 502.311 764.406 510.673V546.005C764.406 554.368 771.186 561.147 779.548 561.147H814.88C823.243 561.147 830.022 554.368 830.022 546.005V510.673C830.022 502.311 823.243 495.531 814.88 495.531Z" fill="#06ED94" stroke="#141024" stroke-width="6" stroke-linecap="round" stroke-linejoin="round"/>
<path d="M1112.72 514.938H892.966C880.472 514.938 870.344 520.534 870.344 527.438C870.344 534.341 880.472 539.938 892.966 539.938H1112.72C1125.22 539.938 1135.34 534.341 1135.34 527.438C1135.34 520.534 1125.22 514.938 1112.72 514.938Z" fill="black" stroke="#141024" stroke-width="3" stroke-linecap="round" stroke-linejoin="round"/>
<path d="M621.768 595.562H667.049C676.11 595.562 683.455 602.908 683.455 611.969V612.337L683.544 612.694L699.394 676.26C699.288 677.518 698.522 678.813 696.639 680.167C694.576 681.65 691.55 682.904 687.949 683.898C680.78 685.879 672.222 686.594 667.049 686.594H621.768C616.597 686.594 608.431 685.88 601.656 683.91C598.255 682.921 595.427 681.678 593.511 680.217C591.76 678.882 591.01 677.573 590.918 676.235L605.287 612.63L605.361 612.304V611.969C605.361 602.908 612.707 595.562 621.768 595.562Z" fill="#7660A8" stroke="black" stroke-width="6"/>
<path d="M770.362 638.354L802.38 670.373C808.787 676.78 808.787 687.168 802.38 693.575L802.082 693.873L801.878 694.241L770.102 751.552C769.185 752.286 767.688 752.644 765.194 752.17C762.473 751.653 759.181 750.237 755.675 748.233C748.694 744.244 741.649 738.379 738.012 734.742L705.993 702.723C702.502 699.233 697.695 692.307 694.712 685.362C693.224 681.896 692.275 678.617 692.086 675.89C691.91 673.344 692.411 671.663 693.315 670.604L746.576 638.809L746.896 638.618L747.16 638.354C753.567 631.947 763.955 631.947 770.362 638.354Z" fill="#7660A8" stroke="black" stroke-width="6"/>
<path d="M845.174 773.688V818.969C845.174 828.03 837.828 835.375 828.768 835.375H828.373L827.992 835.477L770.211 850.93C768.776 850.81 767.074 849.924 765.169 847.92C763.145 845.792 761.216 842.731 759.537 839.19C756.154 832.058 754.143 823.759 754.143 818.969V773.688C754.143 768.974 756.109 762.184 759.412 756.568C761.048 753.787 762.926 751.444 764.897 749.827C766.787 748.278 768.614 747.51 770.332 747.45L828.268 757.239L828.516 757.281H828.768C837.829 757.281 845.174 764.627 845.174 773.688Z" fill="#7660A8" stroke="black" stroke-width="6"/>
<path d="M802.38 922.285L770.361 954.304C763.954 960.711 753.566 960.711 747.159 954.304L746.939 954.083L746.676 953.912L697.843 922.082C696.759 920.879 696.049 918.999 695.883 916.366C695.71 913.605 696.16 910.325 697.099 906.902C698.998 899.985 702.677 893.251 705.993 889.935L738.011 857.917C741.343 854.585 748.096 850.812 755.016 848.822C758.442 847.836 761.722 847.344 764.479 847.487C767.103 847.622 768.968 848.311 770.159 849.38L801.982 898.592L802.155 898.858L802.38 899.084C808.787 905.491 808.787 915.878 802.38 922.285Z" fill="#7660A8" stroke="black" stroke-width="6"/>
<path d="M667.049 997.094H621.768C612.707 997.094 605.361 989.748 605.361 980.688V980.509L605.34 980.332L598.412 922.323C598.484 918.5 601.367 914.498 606.236 911.24C611.08 908 617.1 906.062 621.768 906.062H667.049C671.7 906.062 677.448 907.988 682.023 911.201C686.607 914.421 689.349 918.431 689.406 922.344L683.471 980.383L683.455 980.534V980.688C683.455 989.748 676.11 997.094 667.049 997.094Z" fill="#7660A8" stroke="black" stroke-width="6"/>
<path d="M518.454 954.304L486.436 922.285C480.029 915.878 480.029 905.49 486.436 899.083L486.646 898.873L486.811 898.627L518.644 850.896C519.881 849.769 521.81 849 524.468 848.745C527.243 848.479 530.528 848.805 533.941 849.61C540.857 851.241 547.536 854.647 550.805 857.916L582.823 889.935C586.359 893.47 590.506 899.28 592.83 905.011C595.218 910.896 595.165 915.266 592.934 917.676L542.036 953.983L541.832 954.128L541.656 954.304C535.249 960.711 524.862 960.711 518.454 954.304Z" fill="#7660A8" stroke="black" stroke-width="6"/>
<path d="M443.643 818.973V773.691C443.643 764.63 450.988 757.285 460.049 757.285H460.433L460.804 757.188L523.229 740.97C524.503 741.083 525.873 741.88 527.338 743.831C528.929 745.951 530.315 749.043 531.444 752.69C533.696 759.964 534.674 768.595 534.674 773.691V818.973C534.674 823.682 532.709 830.403 529.411 835.948C527.778 838.695 525.903 841.007 523.934 842.601C522.045 844.13 520.21 844.891 518.478 844.948L460.536 835.419L460.294 835.379H460.049C450.988 835.379 443.643 828.034 443.643 818.973Z" fill="#7660A8" stroke="black" stroke-width="6"/>
<path d="M486.435 670.376L518.454 638.357C524.861 631.95 535.249 631.95 541.656 638.357L582.823 679.524C589.23 685.931 589.23 696.319 582.823 702.726L550.804 734.744C544.397 741.151 534.009 741.151 527.602 734.744L486.435 693.578C480.028 687.17 480.028 676.783 486.435 670.376Z" fill="#7660A8" stroke="black" stroke-width="6"/>
<path d="M644.908 658.984C720 658.984 780.875 719.859 780.875 794.951C780.875 870.043 720 930.918 644.908 930.918C569.816 930.918 508.941 870.043 508.941 794.951C508.941 719.859 569.816 658.984 644.908 658.984Z" fill="#7660A8" stroke="black" stroke-width="6"/>
<path d="M787.95 915.655L765.618 937.987C760.622 942.983 752.523 942.983 747.527 937.987L711.795 902.255C706.799 897.259 706.8 889.16 711.795 884.165L734.128 861.832C739.123 856.837 747.222 856.836 752.218 861.832L787.95 897.564C792.946 902.56 792.946 910.659 787.95 915.655Z" fill="#7660A8" stroke="black" stroke-width="6"/>
<path d="M644.408 848.078C672.989 848.078 696.158 824.909 696.158 796.328C696.158 767.747 672.989 744.578 644.408 744.578C615.827 744.578 592.658 767.747 592.658 796.328C592.658 824.909 615.827 848.078 644.408 848.078Z" fill="white" stroke="#141024" stroke-width="6"/>
<path d="M572.22 766.799L745.172 937.523C762.642 954.767 779.515 955.272 795.792 939.035C812.068 922.798 811.471 906.058 794.002 888.813L621.049 718.089L597.758 632.107C591.563 600.148 492.454 608.984 517.011 622.053C541.569 635.122 559.378 637.996 554.186 656.261C548.995 674.525 523.937 711.551 504.035 702.748L469.925 666.481C464.25 696.412 453.212 738.159 485.451 744.139L572.22 766.799Z" fill="white" stroke="#141024" stroke-width="6" stroke-linecap="round" stroke-linejoin="round"/>
</svg>
